<?xml version="1.0" encoding="UTF-8"?><svg xmlns="http://www.w3.org/2000/svg" xmlns:xlink="http://www.w3.org/1999/xlink" contentScriptType="text/ecmascript" width="112.5" zoomAndPan="magnify" contentStyleType="text/css" viewBox="0 0 112.5 37.5" height="37.5" preserveAspectRatio="xMidYMid meet" version="1.0"><defs><clipPath id="clip-0"><path d="M 9.589844 4.441406 L 103.261719 4.441406 L 103.261719 33.433594 L 9.589844 33.433594 Z M 9.589844 4.441406 " clip-rule="nonzero"/></clipPath></defs><g clip-path="url(#clip-0)"><path fill="rgb(55.288696%, 53.729248%, 53.729248%)" d="M 58.96875 11.738281 C 58.96875 11.988281 58.921875 12.226562 58.828125 12.457031 C 58.730469 12.6875 58.59375 12.894531 58.414062 13.070312 C 58.238281 13.246094 58.03125 13.382812 57.800781 13.480469 C 57.570312 13.574219 57.328125 13.621094 57.078125 13.621094 C 56.824219 13.621094 56.582031 13.574219 56.351562 13.480469 C 56.121094 13.382812 55.914062 13.246094 55.738281 13.070312 C 55.558594 12.894531 55.421875 12.6875 55.324219 12.457031 C 55.230469 12.226562 55.183594 11.988281 55.183594 11.738281 C 55.183594 11.484375 55.230469 11.246094 55.324219 11.015625 C 55.421875 10.785156 55.558594 10.578125 55.738281 10.402344 C 55.914062 10.226562 56.121094 10.089844 56.351562 9.992188 C 56.582031 9.898438 56.824219 9.851562 57.078125 9.851562 C 57.328125 9.847656 57.570312 9.898438 57.800781 9.992188 C 58.035156 10.085938 58.238281 10.222656 58.417969 10.402344 C 58.59375 10.578125 58.730469 10.78125 58.828125 11.015625 C 58.921875 11.246094 58.972656 11.484375 58.96875 11.738281 Z M 51.15625 15.527344 L 51.15625 15.992188 C 50.792969 15.605469 50.367188 15.308594 49.875 15.105469 C 49.382812 14.902344 48.871094 14.8125 48.335938 14.832031 C 47.960938 14.828125 47.585938 14.859375 47.214844 14.933594 C 46.847656 15.003906 46.488281 15.113281 46.136719 15.253906 C 45.789062 15.398438 45.460938 15.578125 45.148438 15.785156 C 44.835938 15.996094 44.546875 16.238281 44.285156 16.503906 C 44.019531 16.773438 43.785156 17.066406 43.582031 17.382812 C 43.378906 17.699219 43.207031 18.03125 43.070312 18.382812 C 42.9375 18.730469 42.835938 19.089844 42.773438 19.460938 C 42.710938 19.832031 42.683594 20.203125 42.699219 20.582031 C 42.683594 20.957031 42.710938 21.328125 42.773438 21.699219 C 42.835938 22.070312 42.933594 22.429688 43.070312 22.78125 C 43.207031 23.128906 43.375 23.464844 43.578125 23.777344 C 43.78125 24.09375 44.015625 24.386719 44.28125 24.65625 C 44.542969 24.925781 44.832031 25.164062 45.140625 25.375 C 45.453125 25.585938 45.785156 25.765625 46.132812 25.910156 C 46.480469 26.054688 46.839844 26.160156 47.210938 26.234375 C 47.582031 26.304688 47.953125 26.339844 48.332031 26.335938 C 48.867188 26.359375 49.382812 26.265625 49.875 26.058594 C 50.371094 25.851562 50.796875 25.546875 51.148438 25.144531 L 51.148438 25.636719 C 51.148438 25.75 51.1875 25.847656 51.265625 25.925781 C 51.347656 26.003906 51.441406 26.042969 51.554688 26.042969 L 53.917969 26.042969 L 53.917969 15.105469 L 51.574219 15.105469 C 51.464844 15.105469 51.371094 15.148438 51.292969 15.226562 C 51.214844 15.304688 51.171875 15.398438 51.171875 15.507812 Z M 51.15625 22.523438 C 50.882812 22.898438 50.535156 23.191406 50.117188 23.402344 C 49.703125 23.613281 49.261719 23.714844 48.792969 23.710938 C 46.925781 23.710938 45.5 22.550781 45.5 20.582031 C 45.5 18.609375 46.925781 17.449219 48.792969 17.449219 C 49.257812 17.449219 49.699219 17.558594 50.113281 17.765625 C 50.53125 17.976562 50.878906 18.265625 51.15625 18.636719 L 51.15625 22.527344 Z M 55.675781 15.121094 L 58.492188 15.121094 L 58.492188 26.035156 L 55.675781 26.035156 L 55.675781 15.105469 Z M 97.480469 14.832031 C 96.949219 14.808594 96.4375 14.902344 95.945312 15.105469 C 95.449219 15.308594 95.023438 15.601562 94.664062 15.992188 L 94.664062 9.867188 L 91.84375 9.867188 L 91.84375 26.035156 L 94.203125 26.035156 C 94.316406 26.03125 94.410156 25.992188 94.488281 25.914062 C 94.566406 25.835938 94.605469 25.742188 94.609375 25.628906 L 94.609375 25.136719 C 94.96875 25.53125 95.390625 25.835938 95.882812 26.042969 C 96.375 26.25 96.886719 26.347656 97.421875 26.328125 C 97.796875 26.332031 98.171875 26.296875 98.542969 26.222656 C 98.910156 26.152344 99.269531 26.042969 99.617188 25.898438 C 99.964844 25.753906 100.296875 25.578125 100.605469 25.367188 C 100.917969 25.15625 101.207031 24.917969 101.46875 24.648438 C 101.734375 24.378906 101.964844 24.085938 102.171875 23.773438 C 102.375 23.457031 102.546875 23.125 102.679688 22.773438 C 102.816406 22.425781 102.917969 22.066406 102.980469 21.695312 C 103.046875 21.324219 103.070312 20.953125 103.058594 20.578125 C 103.070312 20.203125 103.046875 19.832031 102.984375 19.460938 C 102.917969 19.089844 102.820312 18.730469 102.683594 18.382812 C 102.546875 18.03125 102.375 17.699219 102.171875 17.382812 C 101.96875 17.066406 101.734375 16.777344 101.472656 16.507812 C 101.207031 16.238281 100.921875 16 100.609375 15.789062 C 100.296875 15.578125 99.964844 15.402344 99.617188 15.257812 C 99.269531 15.113281 98.910156 15.003906 98.542969 14.933594 C 98.171875 14.859375 97.796875 14.828125 97.421875 14.828125 Z M 97.003906 23.683594 C 96.535156 23.691406 96.09375 23.589844 95.675781 23.378906 C 95.257812 23.167969 94.914062 22.875 94.640625 22.496094 L 94.640625 18.601562 C 95.246094 17.84375 96.03125 17.449219 97.003906 17.414062 C 98.871094 17.414062 100.296875 18.574219 100.296875 20.546875 C 100.296875 22.515625 98.871094 23.679688 97.003906 23.679688 Z M 90.414062 19.566406 L 90.414062 26.066406 L 87.59375 26.066406 L 87.59375 19.890625 C 87.59375 18.085938 87.027344 17.363281 85.433594 17.363281 C 84.527344 17.394531 83.773438 17.753906 83.179688 18.4375 L 83.179688 26.039062 L 80.359375 26.039062 L 80.359375 15.105469 L 82.574219 15.105469 C 82.6875 15.105469 82.78125 15.148438 82.859375 15.226562 C 82.9375 15.304688 82.976562 15.398438 82.980469 15.507812 L 82.980469 15.976562 C 83.375 15.585938 83.828125 15.289062 84.34375 15.085938 C 84.863281 14.886719 85.398438 14.792969 85.953125 14.8125 C 87.105469 14.769531 88.128906 15.117188 89.011719 15.855469 C 90.007812 16.671875 90.382812 17.714844 90.382812 19.542969 Z M 73.59375 14.832031 C 73.0625 14.8125 72.550781 14.902344 72.058594 15.105469 C 71.566406 15.308594 71.136719 15.605469 70.777344 15.996094 L 70.777344 9.871094 L 67.957031 9.871094 L 67.957031 26.035156 L 70.320312 26.035156 C 70.429688 26.03125 70.523438 25.992188 70.601562 25.914062 C 70.679688 25.835938 70.722656 25.742188 70.726562 25.628906 L 70.726562 25.136719 C 71.082031 25.535156 71.507812 25.835938 72 26.042969 C 72.496094 26.253906 73.007812 26.347656 73.542969 26.328125 C 73.921875 26.332031 74.292969 26.296875 74.664062 26.222656 C 75.035156 26.152344 75.390625 26.042969 75.738281 25.898438 C 76.085938 25.753906 76.417969 25.578125 76.730469 25.367188 C 77.042969 25.15625 77.328125 24.917969 77.59375 24.648438 C 77.855469 24.378906 78.089844 24.085938 78.292969 23.773438 C 78.496094 23.457031 78.667969 23.125 78.804688 22.773438 C 78.941406 22.425781 79.039062 22.066406 79.105469 21.695312 C 79.167969 21.324219 79.195312 20.953125 79.183594 20.578125 C 79.195312 20.203125 79.171875 19.828125 79.113281 19.457031 C 79.050781 19.085938 78.953125 18.726562 78.816406 18.375 C 78.679688 18.023438 78.511719 17.691406 78.304688 17.375 C 78.101562 17.058594 77.867188 16.765625 77.605469 16.496094 C 77.339844 16.226562 77.050781 15.988281 76.738281 15.777344 C 76.425781 15.566406 76.097656 15.390625 75.746094 15.246094 C 75.398438 15.105469 75.039062 14.996094 74.667969 14.925781 C 74.296875 14.855469 73.921875 14.824219 73.542969 14.828125 Z M 73.125 23.683594 C 72.660156 23.691406 72.214844 23.589844 71.796875 23.378906 C 71.378906 23.167969 71.035156 22.875 70.765625 22.496094 L 70.765625 18.601562 C 71.367188 17.84375 72.15625 17.449219 73.125 17.414062 C 74.992188 17.414062 76.417969 18.574219 76.417969 20.546875 C 76.417969 22.515625 74.992188 23.679688 73.125 23.679688 Z M 65.53125 14.828125 C 65.964844 14.816406 66.394531 14.863281 66.816406 14.976562 L 66.816406 17.558594 C 66.816406 17.558594 64.472656 16.789062 63.027344 18.425781 L 63.027344 26.0625 L 60.207031 26.0625 L 60.207031 15.105469 L 62.570312 15.105469 C 62.679688 15.105469 62.773438 15.148438 62.851562 15.226562 C 62.929688 15.304688 62.972656 15.398438 62.976562 15.507812 L 62.976562 15.976562 C 63.667969 15.257812 64.515625 14.871094 65.511719 14.8125 Z M 36.460938 25.046875 L 36.023438 24.003906 L 35.351562 22.519531 L 35.324219 22.492188 C 33.285156 18.066406 31.136719 13.691406 28.882812 9.371094 L 28.792969 9.207031 L 28.097656 7.8125 C 27.8125 7.242188 27.460938 6.710938 27.050781 6.21875 C 26.597656 5.652344 26.046875 5.214844 25.390625 4.902344 C 24.734375 4.589844 24.042969 4.4375 23.316406 4.445312 C 22.597656 4.449219 21.910156 4.601562 21.257812 4.90625 C 20.605469 5.210938 20.046875 5.636719 19.585938 6.1875 C 19.183594 6.683594 18.835938 7.214844 18.539062 7.78125 L 17.75 9.320312 C 15.492188 13.675781 13.316406 18.082031 11.304688 22.4375 L 11.277344 22.496094 C 11.109375 22.972656 10.871094 23.460938 10.632812 23.984375 C 10.484375 24.300781 10.339844 24.648438 10.191406 25.027344 C 9.816406 26.042969 9.699219 27.085938 9.84375 28.160156 C 9.921875 28.691406 10.066406 29.203125 10.28125 29.695312 C 10.492188 30.1875 10.765625 30.644531 11.097656 31.066406 C 11.429688 31.492188 11.808594 31.863281 12.238281 32.1875 C 12.667969 32.511719 13.132812 32.773438 13.632812 32.976562 C 14.386719 33.292969 15.175781 33.449219 15.996094 33.441406 C 16.246094 33.4375 16.5 33.417969 16.75 33.386719 C 17.789062 33.253906 18.761719 32.925781 19.664062 32.398438 C 21.035156 31.585938 22.238281 30.578125 23.277344 29.378906 C 24.324219 30.570312 25.53125 31.578125 26.890625 32.398438 C 27.796875 32.925781 28.769531 33.253906 29.808594 33.386719 C 30.058594 33.417969 30.308594 33.4375 30.5625 33.441406 C 31.382812 33.449219 32.171875 33.296875 32.925781 32.976562 C 33.425781 32.773438 33.890625 32.511719 34.320312 32.1875 C 34.75 31.863281 35.128906 31.492188 35.460938 31.066406 C 35.792969 30.644531 36.066406 30.1875 36.277344 29.695312 C 36.492188 29.203125 36.636719 28.691406 36.714844 28.160156 C 36.933594 27.097656 36.84375 26.0625 36.449219 25.054688 Z M 23.320312 26.558594 C 21.746094 24.582031 20.726562 22.730469 20.375 21.15625 C 20.230469 20.574219 20.203125 19.984375 20.285156 19.386719 C 20.34375 18.945312 20.5 18.539062 20.753906 18.171875 C 21.050781 17.761719 21.425781 17.441406 21.878906 17.214844 C 22.332031 16.988281 22.8125 16.882812 23.320312 16.890625 C 23.828125 16.871094 24.308594 16.972656 24.765625 17.199219 C 25.222656 17.425781 25.59375 17.75 25.882812 18.164062 C 26.136719 18.535156 26.292969 18.941406 26.351562 19.382812 C 26.4375 19.976562 26.40625 20.566406 26.261719 21.152344 C 25.910156 22.691406 24.890625 24.519531 23.316406 26.554688 Z M 34.953125 27.921875 C 34.839844 28.679688 34.546875 29.355469 34.074219 29.957031 C 33.597656 30.558594 33.007812 31.003906 32.296875 31.289062 C 31.585938 31.589844 30.851562 31.695312 30.085938 31.609375 C 29.292969 31.511719 28.554688 31.261719 27.871094 30.859375 C 26.609375 30.101562 25.503906 29.164062 24.550781 28.050781 C 26.472656 25.699219 27.640625 23.550781 28.078125 21.632812 C 28.269531 20.820312 28.316406 19.996094 28.222656 19.164062 C 28.113281 18.445312 27.851562 17.785156 27.433594 17.1875 C 26.964844 16.519531 26.367188 16.003906 25.640625 15.632812 C 24.910156 15.265625 24.136719 15.089844 23.320312 15.105469 C 22.507812 15.09375 21.738281 15.269531 21.011719 15.636719 C 20.285156 16 19.683594 16.507812 19.210938 17.164062 C 18.792969 17.761719 18.53125 18.421875 18.421875 19.140625 C 18.296875 19.976562 18.34375 20.796875 18.566406 21.613281 C 19.007812 23.527344 20.203125 25.703125 22.097656 28.058594 C 21.148438 29.179688 20.042969 30.113281 18.777344 30.863281 C 18.089844 31.277344 17.347656 31.535156 16.554688 31.636719 C 15.792969 31.722656 15.054688 31.625 14.339844 31.347656 C 13.628906 31.058594 13.035156 30.617188 12.5625 30.015625 C 12.085938 29.414062 11.792969 28.734375 11.683594 27.980469 C 11.589844 27.207031 11.679688 26.460938 11.949219 25.734375 C 12.039062 25.441406 12.179688 25.171875 12.324219 24.808594 C 12.527344 24.339844 12.765625 23.847656 12.996094 23.351562 L 13.023438 23.296875 C 15.039062 18.964844 17.191406 14.5625 19.441406 10.261719 L 19.523438 10.050781 L 20.226562 8.714844 C 20.453125 8.253906 20.734375 7.824219 21.066406 7.429688 C 21.207031 7.261719 21.367188 7.113281 21.546875 6.976562 C 21.722656 6.84375 21.910156 6.730469 22.113281 6.640625 C 22.3125 6.546875 22.523438 6.476562 22.738281 6.429688 C 22.957031 6.382812 23.175781 6.359375 23.394531 6.359375 C 23.617188 6.359375 23.835938 6.382812 24.054688 6.429688 C 24.269531 6.476562 24.480469 6.546875 24.679688 6.640625 C 24.882812 6.730469 25.070312 6.84375 25.246094 6.976562 C 25.425781 7.113281 25.585938 7.261719 25.726562 7.429688 C 26.042969 7.824219 26.308594 8.25 26.523438 8.707031 L 27.222656 10.042969 L 27.304688 10.207031 C 29.519531 14.539062 31.6875 18.945312 33.695312 23.273438 L 33.695312 23.300781 C 33.925781 23.765625 34.132812 24.289062 34.363281 24.753906 C 34.511719 25.101562 34.65625 25.394531 34.742188 25.679688 C 34.988281 26.414062 35.054688 27.160156 34.945312 27.925781 Z M 34.953125 27.921875 " fill-opacity="1" fill-rule="evenodd"/></g></svg>