<svg xmlns="http://www.w3.org/2000/svg" width="112.5" viewBox="0 0 112.5 30" height="30" version="1.0"><defs><clipPath id="a"><path d="M 2 1.65625 L 110.445312 1.65625 L 110.445312 27.171875 L 2 27.171875 Z M 2 1.65625"/></clipPath></defs><g clip-path="url(#a)"><path d="M 35.804688 18.96875 C 34.820312 17.195312 33.140625 16.488281 31.191406 16.488281 C 28.351562 16.488281 26.09375 18.472656 26.09375 21.828125 C 26.09375 25.238281 28.214844 27.164062 31.285156 27.164062 C 33.257812 27.164062 34.9375 26.097656 35.863281 24.476562 L 33.699219 23.390625 C 33.21875 24.535156 32.484375 24.875 31.558594 24.875 C 29.949219 24.875 29.222656 23.5625 29.222656 21.828125 C 29.222656 20.09375 29.839844 18.777344 31.558594 18.777344 C 32.019531 18.777344 32.949219 19.023438 33.484375 20.167969 L 35.800781 18.96875 Z M 41.324219 18.777344 C 43.042969 18.777344 43.777344 20.09375 43.777344 21.710938 C 43.777344 23.5625 43.042969 24.878906 41.324219 24.878906 C 39.609375 24.878906 38.875 23.5625 38.875 21.828125 C 38.875 20.09375 39.605469 18.777344 41.324219 18.777344 Z M 41.324219 16.484375 C 38.121094 16.484375 35.863281 18.410156 35.863281 21.824219 C 35.863281 25.238281 38.121094 27.160156 41.324219 27.160156 C 44.53125 27.160156 46.792969 25.234375 46.792969 21.824219 C 46.792969 18.410156 44.53125 16.484375 41.324219 16.484375 Z M 47.410156 26.898438 L 50.421875 26.898438 L 50.421875 20.585938 C 50.421875 19.671875 50.808594 18.890625 52.027344 18.890625 C 53.1875 18.890625 53.492188 19.558594 53.492188 20.550781 L 53.492188 26.898438 L 56.503906 26.898438 L 56.503906 20.664062 C 56.503906 19.632812 57.023438 18.890625 58.027344 18.890625 C 59.171875 18.890625 59.574219 19.539062 59.574219 20.96875 L 59.574219 26.898438 L 62.585938 26.898438 L 62.585938 19.15625 C 62.585938 16.832031 60.421875 16.488281 59.417969 16.488281 C 58.222656 16.488281 57.097656 16.851562 56.117188 17.839844 C 55.441406 16.945312 54.570312 16.488281 53.394531 16.488281 C 52.46875 16.488281 51.191406 16.753906 50.421875 17.652344 L 50.421875 16.753906 L 47.40625 16.753906 L 47.40625 26.894531 Z M 63.550781 26.898438 L 66.5625 26.898438 L 66.5625 20.585938 C 66.5625 19.671875 66.949219 18.890625 68.167969 18.890625 C 69.328125 18.890625 69.632812 19.558594 69.632812 20.550781 L 69.632812 26.898438 L 72.644531 26.898438 L 72.644531 20.664062 C 72.644531 19.632812 73.164062 18.890625 74.167969 18.890625 C 75.3125 18.890625 75.714844 19.539062 75.714844 20.96875 L 75.714844 26.898438 L 78.726562 26.898438 L 78.726562 19.15625 C 78.726562 16.832031 76.5625 16.488281 75.558594 16.488281 C 74.363281 16.488281 73.238281 16.851562 72.257812 17.839844 C 71.582031 16.945312 70.714844 16.488281 69.535156 16.488281 C 68.609375 16.488281 67.335938 16.753906 66.5625 17.652344 L 66.5625 16.753906 L 63.550781 16.753906 Z M 84.808594 18.777344 C 86.527344 18.777344 87.261719 20.09375 87.261719 21.710938 C 87.261719 23.5625 86.527344 24.878906 84.808594 24.878906 C 83.089844 24.878906 82.355469 23.5625 82.355469 21.828125 C 82.355469 20.09375 83.089844 18.777344 84.808594 18.777344 Z M 84.808594 16.484375 C 81.601562 16.484375 79.34375 18.410156 79.34375 21.824219 C 79.34375 25.238281 81.601562 27.160156 84.808594 27.160156 C 88.011719 27.160156 90.273438 25.234375 90.273438 21.824219 C 90.273438 18.410156 88.011719 16.484375 84.808594 16.484375 Z M 91.082031 26.894531 L 94.09375 26.894531 L 94.09375 20.585938 C 94.09375 19.671875 94.480469 18.890625 95.703125 18.890625 C 96.859375 18.890625 97.164062 19.558594 97.164062 20.550781 L 97.164062 26.898438 L 100.175781 26.898438 L 100.175781 19.40625 C 100.175781 17.878906 99.5 16.488281 97.070312 16.488281 C 96.144531 16.488281 94.871094 16.753906 94.097656 17.652344 L 94.097656 16.753906 L 91.085938 16.753906 L 91.085938 26.898438 Z M 110.234375 17.957031 C 108.847656 17.042969 107.28125 16.488281 105.703125 16.488281 C 103.617188 16.488281 101.359375 17.480469 101.359375 20.035156 C 101.359375 23.636719 107.441406 22.378906 107.441406 23.960938 C 107.441406 24.878906 106.296875 24.992188 105.796875 24.992188 C 104.429688 24.992188 103.476562 24.4375 102.554688 23.5625 L 100.675781 25.160156 C 102.183594 26.535156 103.460938 27.164062 105.699219 27.164062 C 107.933594 27.164062 110.332031 26.210938 110.332031 23.542969 C 110.332031 19.75 104.25 21.179688 104.25 19.441406 C 104.25 18.929688 104.789062 18.660156 105.542969 18.660156 C 106.488281 18.660156 107.78125 19.042969 108.378906 19.75 Z M 35.800781 7.296875 C 34.816406 5.523438 33.136719 4.816406 31.1875 4.816406 C 28.347656 4.816406 26.089844 6.800781 26.089844 10.15625 C 26.089844 13.566406 28.214844 15.492188 31.285156 15.492188 C 33.253906 15.492188 34.933594 14.425781 35.859375 12.804688 L 33.699219 11.71875 C 33.214844 12.863281 32.480469 13.207031 31.554688 13.207031 C 29.949219 13.207031 29.21875 11.890625 29.21875 10.15625 C 29.21875 8.421875 29.835938 7.105469 31.554688 7.105469 C 32.019531 7.105469 32.945312 7.351562 33.480469 8.496094 Z M 36.539062 15.230469 L 39.550781 15.230469 L 39.550781 9.359375 C 39.550781 8.230469 40.265625 7.929688 42.058594 7.71875 L 42.386719 7.679688 L 42.371094 5.050781 C 41.308594 5.125 40.207031 5.507812 39.550781 6.117188 L 39.550781 5.089844 L 36.535156 5.089844 L 36.535156 15.230469 Z M 52.617188 10.769531 C 52.597656 7.644531 51.324219 4.820312 47.578125 4.820312 C 44.449219 4.820312 42.539062 6.878906 42.539062 10.460938 C 42.539062 13.320312 44.390625 15.492188 47.578125 15.492188 C 49.875 15.492188 51.519531 14.597656 52.558594 12.691406 L 50.300781 11.527344 C 49.433594 12.75 48.910156 13.320312 47.789062 13.320312 C 46.824219 13.320312 45.570312 12.710938 45.550781 10.765625 L 52.617188 10.765625 Z M 45.511719 8.9375 C 45.648438 7.605469 46.691406 6.996094 47.558594 6.996094 C 48.429688 6.996094 49.507812 7.453125 49.605469 8.9375 Z M 59.527344 10.996094 C 59.527344 12.542969 58.640625 13.324219 57.460938 13.324219 C 56.726562 13.324219 56.050781 12.980469 56.050781 12.179688 C 56.050781 11.359375 56.746094 11.074219 57.5 10.863281 L 59.527344 10.292969 Z M 62.425781 7.757812 C 62.40625 5.464844 60.648438 4.820312 57.847656 4.820312 C 56.457031 4.820312 53.714844 5.085938 53.617188 8.003906 L 56.515625 8.003906 C 56.671875 6.992188 57.132812 6.652344 58.097656 6.652344 C 58.910156 6.652344 59.527344 6.976562 59.527344 7.738281 L 59.527344 8.578125 L 58.425781 8.730469 C 55.148438 9.1875 53.160156 10.042969 53.160156 12.484375 C 53.160156 14.429688 54.625 15.496094 56.597656 15.496094 C 57.679688 15.496094 59.1875 14.980469 59.6875 14.179688 L 59.726562 14.179688 C 59.746094 14.523438 59.804688 14.886719 59.917969 15.230469 L 62.703125 15.230469 C 62.453125 14.601562 62.433594 13.820312 62.433594 13.113281 L 62.433594 7.757812 Z M 69.507812 5.277344 L 67.714844 5.277344 L 67.714844 2.34375 L 64.699219 2.34375 L 64.699219 5.277344 L 63.238281 5.277344 L 63.238281 7.109375 L 64.699219 7.109375 L 64.699219 12.445312 C 64.699219 13.914062 65.066406 15.496094 67.636719 15.496094 C 68.292969 15.496094 69.179688 15.421875 69.566406 15.382812 L 69.566406 13.039062 C 69.261719 13.074219 68.960938 13.09375 68.65625 13.097656 C 68.117188 13.097656 67.710938 12.886719 67.710938 12.085938 L 67.710938 7.109375 L 69.507812 7.109375 Z M 70.644531 5.089844 L 70.644531 15.230469 L 73.65625 15.230469 L 73.65625 5.089844 Z M 73.65625 3.945312 L 73.65625 1.65625 L 70.644531 1.65625 L 70.644531 3.949219 L 73.65625 3.949219 Z M 77.710938 15.230469 L 80.742188 15.230469 L 84.257812 5.085938 L 81.050781 5.085938 L 79.273438 12.253906 L 79.234375 12.253906 L 77.457031 5.085938 L 74.234375 5.085938 Z M 93.984375 10.769531 C 93.964844 7.644531 92.691406 4.820312 88.945312 4.820312 C 85.816406 4.820312 83.902344 6.878906 83.902344 10.460938 C 83.902344 13.320312 85.761719 15.492188 88.945312 15.492188 C 91.242188 15.492188 92.882812 14.597656 93.925781 12.691406 L 91.667969 11.527344 C 90.796875 12.75 90.277344 13.320312 89.15625 13.320312 C 88.191406 13.320312 86.9375 12.710938 86.917969 10.765625 L 93.984375 10.765625 Z M 86.878906 8.9375 C 87.011719 7.605469 88.054688 6.996094 88.925781 6.996094 C 89.792969 6.996094 90.875 7.453125 90.972656 8.9375 L 86.875 8.9375 Z M 13.421875 4.652344 C 10.324219 4.652344 7.59375 5.78125 5.488281 7.894531 C 3.320312 10.066406 2.140625 12.882812 2.140625 15.820312 C 2.140625 18.785156 3.289062 21.542969 5.460938 23.683594 C 7.632812 25.824219 10.449219 26.988281 13.425781 26.988281 C 16.402344 26.988281 19.28125 25.824219 21.515625 23.652344 C 23.625 21.601562 24.738281 18.878906 24.738281 15.820312 C 24.738281 12.789062 23.625 10.039062 21.484375 7.925781 C 19.316406 5.78125 16.523438 4.648438 13.425781 4.648438 Z M 13.453125 6.671875 C 15.996094 6.671875 18.257812 7.621094 20.023438 9.363281 C 21.757812 11.078125 22.691406 13.339844 22.691406 15.820312 C 22.691406 18.328125 21.789062 20.53125 20.054688 22.214844 C 18.226562 23.988281 15.871094 24.9375 13.453125 24.9375 C 11.003906 24.9375 8.710938 23.984375 6.945312 22.246094 C 5.179688 20.503906 4.1875 18.207031 4.1875 15.820312 C 4.1875 13.402344 5.179688 11.105469 6.945312 9.332031 C 8.679688 7.589844 10.910156 6.671875 13.457031 6.671875 Z M 13.3125 13.964844 C 12.667969 12.8125 11.582031 12.355469 10.3125 12.355469 C 8.46875 12.355469 7.003906 13.640625 7.003906 15.820312 C 7.003906 18.035156 8.382812 19.285156 10.375 19.285156 C 11.652344 19.285156 12.742188 18.589844 13.34375 17.539062 L 11.941406 16.835938 C 11.628906 17.578125 11.15625 17.800781 10.550781 17.800781 C 9.511719 17.800781 9.035156 16.945312 9.035156 15.820312 C 9.035156 14.695312 9.433594 13.839844 10.550781 13.839844 C 10.851562 13.839844 11.453125 14.003906 11.800781 14.742188 L 13.304688 13.964844 Z M 19.835938 13.964844 C 19.195312 12.8125 18.109375 12.355469 16.839844 12.355469 C 14.996094 12.355469 13.53125 13.640625 13.53125 15.820312 C 13.53125 18.035156 14.910156 19.285156 16.902344 19.285156 C 18.179688 19.285156 19.269531 18.589844 19.871094 17.539062 L 18.46875 16.835938 C 18.152344 17.578125 17.683594 17.800781 17.078125 17.800781 C 16.035156 17.800781 15.558594 16.945312 15.558594 15.820312 C 15.558594 14.695312 15.960938 13.839844 17.078125 13.839844 C 17.378906 13.839844 17.980469 14.003906 18.324219 14.742188 L 19.828125 13.964844 Z M 19.835938 13.964844" fill-rule="evenodd"/></g></svg>